# xmcd
#
# Track frame offsets: 
#        150
#        15820
#        37744
#        54345
#        68402
#        93837
#        109922
#        125519
#        144955
#        162947
#        178129
#        197342
#
# Disc length: 2778 seconds
#
# Revision: 0
# Processed by: cddbd v1.5.2PL0 Copyright (c) Steve Scherf et al.
# Submitted via: ExactAudioCopyFreeDBPlugin 1.0
#
DISCID=880ad80c
DTITLE=Leftover Salmon - High Country
DYEAR=2014
DGENRE=Jamgrass
TTITLE0=Get Up and Go
TTITLE1=Western Skies
TTITLE2=Home Cookin'
TTITLE3=High Country
TTITLE4=Bluegrass Pines
TTITLE5=Better Day
TTITLE6=Six Feet of Snow
TTITLE7=So Lonesome
TTITLE8=Light in the Woods
TTITLE9=Thornpipe
TTITLE10=Two Highways
TTITLE11=Finish Your Beer
EXTD=
EXTT0=
EXTT1=
EXTT2=
EXTT3=
EXTT4=
EXTT5=
EXTT6=
EXTT7=
EXTT8=
EXTT9=
EXTT10=
EXTT11=
PLAYORDER=
